Here's the official music video 

*Selecta Ft. Strezz & Don Dotchy - SKNY Jeans (2010)[720p.x264]AAC*


========================================================================

Format                           : MPEG-4
Format profile                   : Base Media / Version 2
Codec ID                         : mp42
File size                        : 70.4 MiB
Duration                         : 3mn 39s
Overall bit rate                 : 2 685 Kbps

Video
ID                               : 1
Format                           : AVC
Format/Info                      : Advanced Video Codec
Format profile                   : High@L3.1
Format settings, CABAC           : Yes
Format settings, ReFrames        : 1 frame
Codec ID                         : avc1
Codec ID/Info                    : Advanced Video Coding
Duration                         : 3mn 39s
Bit rate mode                    : Variable
Bit rate                         : 2 552 Kbps
Maximum bit rate                 : 7 164 Kbps
Width                            : 1 280 pixels
Height                           : 720 pixels
Display aspect ratio             : 16:9
Frame rate mode                  : Variable
Frame rate                       : 30.000 fps
Minimum frame rate               : 29.412 fps
Maximum frame rate               : 55.556 fps
Color space                      : YUV
Chroma subsampling               : 4:2:0
Bit depth                        : 8 bits
Scan type                        : Progressive
Bits/(Pixel*Frame)               : 0.092
Stream size                      : 66.9 MiB (95%)


Audio
ID                               : 2
Format                           : AAC
Format/Info                      : Advanced Audio Codec
Format version                   : Version 4
Format profile                   : LC
Format settings, SBR             : No
Codec ID                         : 40
Duration                         : 3mn 39s
Bit rate mode                    : Variable
Bit rate                         : 127 Kbps
Maximum bit rate                 : 220 Kbps
Channel(s)                       : 2 channels
Channel positions                : Front: L R
Sampling rate                    : 44.1 KHz
Stream size                      : 3.32 MiB (5%)

========================================================================

Enjoy......Fuckers.
		
